# xmcd
#
# Track frame offsets: 
#        150
#        19447
#        34989
#        54282
#
# Disc length: 929 seconds
#
# Revision: 4
# Processed by: cddbd v1.5.2PL0 Copyright (c) Steve Scherf et al.
# Submitted via: ExactAudioCopyFreeDBPlugin 1.0
#
DISCID=2e039f04
DTITLE=Qverktett:|| - Tokyo Rose
DYEAR=2014
DGENRE=Anime
TTITLE0=OVERLAPPERS
TTITLE1=異能性発見学
TTITLE2=OVERLAPPERS (Instrumental)
TTITLE3=異能性発見学 (Instrumental)
EXTD=
EXTT0=
EXTT1=
EXTT2=
EXTT3=
PLAYORDER=
